<svg xmlns="http://www.w3.org/2000/svg" width="107" height="44" viewBox="0 0 107 44" fill="none"><path d="M41.848 34.288C40.96 34.288 40.12 34.168 39.328 33.928C38.536 33.688 37.828 33.328 37.204 32.848C36.58 32.368 36.088 31.768 35.728 31.048C35.368 30.328 35.188 29.488 35.188 28.528C35.188 27.16 35.464 26.08 36.016 25.288C36.592 24.472 37.36 23.872 38.32 23.488C39.304 23.08 40.42 22.816 41.668 22.696C42.916 22.576 44.212 22.516 45.556 22.516H47.356C47.356 21.916 47.236 21.4 46.996 20.968C46.78 20.512 46.444 20.152 45.988 19.888C45.532 19.624 44.968 19.492 44.296 19.492C43.816 19.492 43.36 19.564 42.928 19.708C42.52 19.828 42.172 20.008 41.884 20.248C41.62 20.464 41.44 20.74 41.344 21.076H35.62C35.788 19.948 36.136 18.988 36.664 18.196C37.216 17.38 37.888 16.72 38.68 16.216C39.496 15.712 40.408 15.34 41.416 15.1C42.424 14.836 43.456 14.704 44.512 14.704C47.296 14.704 49.372 15.484 50.74 17.044C52.108 18.604 52.792 20.86 52.792 23.812V34H47.572L47.536 31.516C46.936 32.428 46.252 33.076 45.484 33.46C44.716 33.844 43.996 34.072 43.324 34.144C42.652 34.24 42.16 34.288 41.848 34.288ZM43.288 29.86C44.008 29.86 44.68 29.704 45.304 29.392C45.928 29.056 46.432 28.636 46.816 28.132C47.224 27.604 47.428 27.04 47.428 26.44V26.152H43.9C43.516 26.152 43.132 26.176 42.748 26.224C42.388 26.272 42.064 26.368 41.776 26.512C41.488 26.632 41.26 26.812 41.092 27.052C40.924 27.292 40.84 27.604 40.84 27.988C40.84 28.396 40.948 28.744 41.164 29.032C41.38 29.296 41.668 29.5 42.028 29.644C42.412 29.788 42.832 29.86 43.288 29.86ZM56.4376 34V15.028H62.1616V34H56.4376ZM59.3176 13.444C58.2616 13.444 57.4096 13.132 56.7616 12.508C56.1376 11.884 55.8256 11.068 55.8256 10.06C55.8256 9.028 56.1616 8.188 56.8336 7.54C57.5056 6.892 58.3456 6.568 59.3536 6.568C60.3136 6.568 61.1296 6.88 61.8016 7.504C62.4736 8.128 62.8096 8.968 62.8096 10.024C62.8096 11.056 62.4856 11.884 61.8376 12.508C61.1896 13.132 60.3496 13.444 59.3176 13.444ZM65.8243 34V15.028H71.1163L71.4403 16.972C71.9923 16.348 72.6043 15.868 73.2763 15.532C73.9723 15.196 74.6563 14.968 75.3283 14.848C76.0243 14.728 76.6243 14.668 77.1283 14.668C78.9283 14.668 80.3323 15.076 81.3403 15.892C82.3723 16.684 83.1043 17.752 83.5363 19.096C83.9683 20.44 84.1843 21.916 84.1843 23.524V34H78.4963V24.136C78.4963 23.632 78.4483 23.14 78.3523 22.66C78.2563 22.156 78.0883 21.7 77.8483 21.292C77.6323 20.86 77.3203 20.524 76.9123 20.284C76.5043 20.02 75.9763 19.888 75.3283 19.888C74.4883 19.888 73.7803 20.092 73.2043 20.5C72.6283 20.908 72.2083 21.46 71.9443 22.156C71.6803 22.828 71.5483 23.584 71.5483 24.424V34H65.8243ZM96.5818 34.288C94.6138 34.288 92.9098 33.892 91.4698 33.1C90.0538 32.308 88.9618 31.192 88.1938 29.752C87.4258 28.288 87.0418 26.572 87.0418 24.604C87.0418 22.636 87.4378 20.908 88.2298 19.42C89.0218 17.932 90.1258 16.768 91.5418 15.928C92.9818 15.088 94.6738 14.668 96.6178 14.668C98.0338 14.668 99.2818 14.896 100.362 15.352C101.466 15.808 102.402 16.456 103.17 17.296C103.962 18.136 104.55 19.132 104.934 20.284C105.342 21.436 105.546 22.696 105.546 24.064C105.522 24.424 105.498 24.784 105.474 25.144C105.45 25.48 105.39 25.828 105.294 26.188H92.6938C92.7658 26.788 92.9458 27.34 93.2338 27.844C93.5218 28.348 93.9298 28.744 94.4578 29.032C94.9858 29.32 95.6578 29.464 96.4738 29.464C97.0498 29.464 97.5658 29.404 98.0218 29.284C98.5018 29.14 98.8978 28.948 99.2098 28.708C99.5218 28.444 99.7258 28.156 99.8218 27.844H105.438C105.126 29.356 104.526 30.592 103.638 31.552C102.75 32.488 101.694 33.184 100.47 33.64C99.2458 34.072 97.9498 34.288 96.5818 34.288ZM92.8018 22.336H100.11C100.11 21.832 99.9778 21.34 99.7138 20.86C99.4738 20.38 99.0898 19.996 98.5618 19.708C98.0338 19.396 97.3498 19.24 96.5098 19.24C95.6938 19.24 95.0098 19.396 94.4578 19.708C93.9058 20.02 93.4978 20.416 93.2338 20.896C92.9698 21.376 92.8258 21.856 92.8018 22.336Z" fill="white"></path><g clip-path="url(#clip0_368_330)"><path d="M10.653 22.5871C9.57554 21.948 8.39947 21.6246 7.13234 21.6246C5.83486 21.6246 4.64361 21.948 3.54341 22.5871C2.45079 23.2339 1.58581 24.1039 0.948449 25.2204C0.318679 26.3292 0 27.5457 0 28.8547C0 30.1405 0.318679 31.334 0.948449 32.4273C1.57822 33.5207 2.4432 34.3908 3.54341 35.0375C4.63602 35.6766 5.83486 36 7.13234 36C8.39947 36 9.57554 35.6766 10.653 35.0375C11.7304 34.3985 12.5878 33.5284 13.2252 32.4273C13.8549 31.334 14.1736 30.1405 14.1736 28.8547C14.1736 27.538 13.8549 26.3292 13.2252 25.2127C12.5878 24.1116 11.7304 23.2339 10.653 22.5871Z" fill="url(#paint0_linear_368_330)"></path><path d="M16.154 4L9.63624 15.4418L20.9114 35.3455H34L16.154 4Z" fill="url(#paint1_linear_368_330)"></path></g><defs><linearGradient id="paint0_linear_368_330" x1="0" y1="4" x2="31.9413" y2="37.9376" gradientUnits="userSpaceOnUse"><stop stop-color="#02CE80"></stop><stop offset="1" stop-color="#7BD706"></stop></linearGradient><linearGradient id="paint1_linear_368_330" x1="0" y1="4" x2="31.9413" y2="37.9376" gradientUnits="userSpaceOnUse"><stop stop-color="#02CE80"></stop><stop offset="1" stop-color="#7BD706"></stop></linearGradient><clipPath id="clip0_368_330"><rect width="34" height="32" fill="white" transform="translate(0 4)"></rect></clipPath></defs></svg>